<svg aria-hidden="true" style="position: absolute; width: 0; height: 0; overflow: hidden;" version="1.1" xmlns="http://www.w3.org/2000/svg" xmlns:xlink="http://www.w3.org/1999/xlink">
<defs>

<symbol id="modal-cross" viewBox="0 0 32 32">
<path d="M1.212 1.212c0.803-0.803 2.106-0.803 2.909 0l11.879 11.879 11.879-11.879c0.803-0.803 2.106-0.803 2.909 0s0.803 2.106 0 2.909l-11.879 11.879 11.879 11.879c0.803 0.803 0.803 2.106 0 2.909s-2.106 0.803-2.909 0l-11.879-11.879-11.879 11.879c-0.803 0.803-2.106 0.803-2.909 0s-0.803-2.106 0-2.909l11.879-11.879-11.879-11.879c-0.803-0.803-0.803-2.106 0-2.909z"></path>
</symbol>

<symbol id="modal-arrow" viewBox="0 0 48 32">
<path d="M1.453 3.454c1.406-1.406 3.685-1.406 5.091 0l17.454 17.454 17.454-17.454c1.406-1.406 3.685-1.406 5.091 0s1.406 3.685 0 5.091l-20 20c-1.406 1.406-3.685 1.406-5.091 0l-20-20c-1.406-1.406-1.406-3.685 0-5.091z"></path>
</symbol>

</defs>
</svg>
