<svg aria-hidden="true" style="position: absolute; width: 0; height: 0; overflow: hidden;" version="1.1" xmlns="http://www.w3.org/2000/svg" xmlns:xlink="http://www.w3.org/1999/xlink">
<defs>
<symbol id="icon-button-arrow-left" viewBox="0 0 32 32">
<path stroke-linejoin="round" stroke-linecap="round" stroke-miterlimit="4" stroke-width="1.7778" d="M19.556 22.222l-6.222-6.222 6.222-6.222"></path>
</symbol>

<symbol id="icon-button-arrow-right" viewBox="0 0 32 32">
<path stroke-linejoin="round" stroke-linecap="round" stroke-miterlimit="4" stroke-width="1.7778" d="M12.444 22.222l6.222-6.222-6.222-6.222"></path>
</symbol>

<symbol id="modal-cross" viewBox="0 0 32 32">
    <path d="M1.212 1.212c0.803-0.803 2.106-0.803 2.909 0l11.879 11.879 11.879-11.879c0.803-0.803 2.106-0.803 2.909 0s0.803 2.106 0 2.909l-11.879 11.879 11.879 11.879c0.803 0.803 0.803 2.106 0 2.909s-2.106 0.803-2.909 0l-11.879-11.879-11.879 11.879c-0.803 0.803-2.106 0.803-2.909 0s-0.803-2.106 0-2.909l11.879-11.879-11.879-11.879c-0.803-0.803-0.803-2.106 0-2.909z"></path>
</symbol>
    
<symbol id="modal-arrow" viewBox="0 0 48 32">
    <path d="M1.453 3.454c1.406-1.406 3.685-1.406 5.091 0l17.454 17.454 17.454-17.454c1.406-1.406 3.685-1.406 5.091 0s1.406 3.685 0 5.091l-20 20c-1.406 1.406-3.685 1.406-5.091 0l-20-20c-1.406-1.406-1.406-3.685 0-5.091z"></path>
</symbol>
<symbol id="icon-instagram" viewBox="0 0 32 32">
    <path stroke-linecap="round" stroke-linejoin="round" stroke-width="2" d="M22.667 2.667H9.334a6.667 6.667 0 0 0-6.667 6.667v13.333a6.667 6.667 0 0 0 6.667 6.667h13.333a6.667 6.667 0 0 0 6.667-6.667V9.334a6.667 6.667 0 0 0-6.667-6.667z"/>
    <path stroke-linecap="round" stroke-linejoin="round" stroke-width="2" d="M21.334 15.16a5.329 5.329 0 0 1-2.878 5.546 5.338 5.338 0 0 1-6.169-.992 5.33 5.33 0 0 1 1.316-8.505 5.336 5.336 0 0 1 6.228.962 5.328 5.328 0 0 1 1.504 2.989zM23.333 8.667h.016"/>
  </symbol>
  <symbol id="icon-facebook" viewBox="0 0 32 32">
    <path stroke-linecap="round" stroke-linejoin="round" stroke-width="2" d="M24 2.667h-4a6.67 6.67 0 0 0-6.667 6.667v4h-4v5.333h4v10.667h5.333V18.667h4l1.333-5.333h-5.333v-4A1.334 1.334 0 0 1 20 8h4V2.667z"/>
  </symbol>
  <symbol id="icon-twitter" viewBox="0 0 32 32">
    <path stroke-linecap="round" stroke-linejoin="round" stroke-width="2" d="M30.667 4a14.542 14.542 0 0 1-4.187 2.04 5.975 5.975 0 0 0-6.637-1.661A5.981 5.981 0 0 0 16 10.04v1.333a14.211 14.211 0 0 1-12-6.04s-5.333 12 6.667 17.333a15.519 15.519 0 0 1-9.333 2.667c12 6.667 26.667 0 26.667-15.333a5.966 5.966 0 0 0-.107-1.107A10.288 10.288 0 0 0 30.667 4z"/>
  </symbol>
  <symbol id="icon-twitter-mobile" viewBox="0 0 32 32">
    <path stroke-linecap="round" stroke-linejoin="round" stroke-width="2.08" d="M30.667 4.001a14.53 14.53 0 0 1-4.187 2.04 5.975 5.975 0 0 0-6.637-1.661A5.977 5.977 0 0 0 16 10.041v1.333a14.211 14.211 0 0 1-12-6.04s-5.333 12 6.667 17.333a15.519 15.519 0 0 1-9.333 2.667c12 6.667 26.667 0 26.667-15.333a5.966 5.966 0 0 0-.107-1.107 10.288 10.288 0 0 0 2.773-4.893z"/>
  </symbol>
  <symbol id="icon-facebook-mobile" viewBox="0 0 32 32">
    <path stroke-linecap="round" stroke-linejoin="round" stroke-width="2.08" d="M24 2.666h-4a6.67 6.67 0 0 0-6.667 6.667v4h-4v5.333h4v10.667h5.333V18.666h4l1.333-5.333h-5.333v-4A1.335 1.335 0 0 1 20 7.999h4V2.666z"/>
  </symbol>
  <symbol id="icon-instagram-mobile" viewBox="0 0 32 32">
    <path stroke-linecap="round" stroke-linejoin="round" stroke-width="2.08" d="M22.666 2.666H9.333a6.667 6.667 0 0 0-6.667 6.667v13.333a6.667 6.667 0 0 0 6.667 6.667h13.333a6.667 6.667 0 0 0 6.667-6.667V9.333a6.667 6.667 0 0 0-6.667-6.667z"/>
    <path stroke-linecap="round" stroke-linejoin="round" stroke-width="2.08" d="M21.333 15.16a5.336 5.336 0 0 1-6.123 6.049 5.334 5.334 0 0 1-3.916-7.663 5.338 5.338 0 0 1 5.547-2.878 5.334 5.334 0 0 1 4.493 4.493zM23.334 8.666h.016"/>
  </symbol>
  <symbol id="icon-menu-close" viewBox="0 0 32 32">
    <path stroke-linejoin="round" stroke-linecap="round" stroke-miterlimit="4" stroke-width="2" d="M24.009 8.003l-16.006 16.006M8.003 8.003l16.006 16.006"></path>
  </symbol>
  <symbol id="icon-menu" viewBox="0 0 32 32">
    <path stroke-linejoin="round" stroke-linecap="round" stroke-miterlimit="4" stroke-width="2" d="M4.001 16.006h24.009M4.001 8.003h24.009M4.001 24.009h16.006"></path>
  </symbol>
</defs>
</svg>
