<svg version="1.0" xmlns="http://www.w3.org/2000/svg"
 width="700.000000pt" height="700.000000pt" viewBox="0 0 700.000000 700.000000"
 preserveAspectRatio="xMidYMid meet">
<metadata>
Created by potrace 1.14, written by Peter Selinger 2001-2017
</metadata>
<g transform="translate(0.000000,700.000000) scale(0.100000,-0.100000)"
fill="#000000" stroke="none">
<path d="M763 6980 c-17 -10 -37 -29 -44 -42 -10 -18 -13 -190 -14 -778 l0
-755 -281 0 c-249 0 -284 -2 -307 -18 -57 -37 -61 -53 -62 -256 0 -102 4 -201
9 -219 10 -33 51 -71 84 -77 9 -2 38 -4 64 -4 l48 -1 0 -1780 c0 -1581 1
-1784 15 -1810 35 -68 135 -79 188 -20 15 16 28 38 28 48 1 9 3 811 4 1782 1
971 3 1768 4 1773 0 4 1352 7 3004 7 l3002 0 0 -401 1 -401 37 -34 c42 -38 87
-45 137 -19 59 31 60 36 60 465 l0 390 50 0 c64 0 111 19 135 56 17 26 19 49
19 230 0 301 17 288 -363 290 -152 1 -278 2 -281 3 -3 0 -5 340 -6 754 0 716
-1 753 -18 780 -39 58 -30 57 -576 57 -560 0 -553 1 -585 -67 -28 -59 -8 -123
50 -156 14 -8 148 -12 450 -14 237 0 433 -2 436 -2 3 -1 5 -306 5 -678 l-1
-678 -2555 0 -2555 0 -1 678 c-2 622 -1 677 15 678 9 0 893 1 1964 2 l1949 2
34 37 c25 28 34 47 34 73 0 50 -23 89 -64 109 -31 15 -205 16 -2058 16 -1985
0 -2024 0 -2055 -20z m5946 -1860 l1 -50 -3211 0 -3210 0 2 50 3 50 3206 0
3207 0 2 -50z"/>
<path d="M1595 6546 c-17 -7 -39 -26 -49 -42 -18 -26 -19 -57 -20 -423 -1
-218 2 -411 6 -430 3 -19 18 -46 33 -60 21 -22 35 -26 79 -26 44 0 59 5 80 24
33 31 39 68 39 224 l0 127 97 0 96 0 1 -127 c1 -185 0 -180 31 -214 21 -24 38
-32 72 -35 51 -5 84 8 113 48 19 26 20 42 20 440 0 462 -1 465 -68 494 -43 18
-69 18 -104 0 -56 -30 -64 -55 -65 -218 0 -125 -3 -148 -16 -149 -18 -1 -127
-1 -156 0 -20 1 -21 6 -21 149 0 166 -7 187 -68 216 -40 19 -60 20 -100 2z"/>
<path d="M2669 6547 c-100 -28 -165 -83 -217 -181 l-27 -51 0 -255 c0 -239 1
-258 21 -300 32 -68 98 -135 162 -167 50 -24 68 -28 147 -28 75 0 98 4 140 25
67 33 131 99 163 168 25 55 26 63 28 282 2 244 -5 290 -53 365 -77 119 -231
179 -364 142z m152 -256 l29 -29 0 -201 0 -201 -27 -30 c-54 -59 -145 -35
-160 42 -13 63 -8 362 6 396 24 58 104 70 152 23z"/>
<path d="M3281 6548 c-57 -30 -83 -106 -55 -160 27 -52 57 -63 180 -67 l22 -1
0 -339 c1 -373 1 -374 63 -407 49 -25 97 -18 135 20 19 19 35 45 35 58 1 12 2
166 3 340 0 174 4 319 8 323 3 4 33 8 66 9 71 2 108 23 128 73 20 47 11 90
-26 127 l-30 31 -253 3 c-188 2 -258 -1 -276 -10z"/>
<path d="M4144 6544 c-65 -32 -65 -29 -64 -484 0 -453 0 -454 62 -486 26 -13
70 -16 276 -16 274 0 279 1 315 74 22 45 14 87 -24 126 -35 35 -47 37 -241 37
-82 -1 -149 3 -149 7 -4 21 -5 114 -2 123 2 6 45 11 104 12 82 2 106 6 134 23
67 41 69 144 5 190 -26 18 -46 22 -137 24 l-107 2 -1 74 0 73 175 1 c166 1
177 2 207 24 65 46 61 144 -6 189 -33 22 -40 23 -275 23 -194 0 -247 -3 -272
-16z"/>
<path d="M5030 6542 c-65 -32 -65 -35 -65 -491 0 -399 1 -411 21 -438 39 -52
56 -55 320 -55 229 0 245 2 273 21 61 44 67 133 11 184 -17 15 -43 28 -58 28
-15 1 -94 2 -177 3 l-150 1 -2 337 c-2 375 -3 382 -69 413 -41 19 -61 19 -104
-3z"/>
<path d="M1113 4699 c-114 -21 -214 -102 -254 -207 -20 -53 -22 -75 -23 -313
-1 -142 2 -270 6 -286 4 -16 21 -42 38 -58 l31 -29 252 -1 c359 0 340 -21 335
385 -3 264 -3 265 -30 320 -65 134 -217 215 -355 189z m97 -244 c16 -8 34 -25
41 -36 9 -18 13 -152 10 -336 l-1 -43 -94 1 -94 0 1 184 c2 168 4 185 22 205
36 40 71 48 115 25z"/>
<path d="M2041 4698 c-103 -18 -193 -89 -240 -188 -26 -55 -26 -57 -29 -335
-3 -302 -1 -310 51 -349 26 -19 41 -20 277 -21 350 0 330 -22 330 357 1 145
-4 277 -8 294 -51 170 -211 273 -381 242z m93 -238 c54 -20 61 -51 61 -241 l0
-174 -91 -3 c-81 -3 -92 -1 -96 15 -2 10 -3 91 -3 181 2 146 4 166 22 190 17
22 42 36 75 41 4 1 18 -3 32 -9z"/>
<path d="M2979 4699 c-101 -16 -206 -98 -252 -197 -20 -44 -21 -65 -23 -326
-3 -304 -1 -315 53 -352 25 -17 51 -18 279 -18 l250 -1 31 25 c17 14 35 36 39
50 10 35 11 495 1 555 -22 124 -132 240 -247 259 -69 12 -86 12 -131 5z m123
-269 l26 -28 2 -180 1 -180 -96 0 -95 -1 0 174 c0 96 4 185 10 200 12 31 65
57 100 49 14 -2 37 -18 52 -34z"/>
<path d="M3910 4699 c-112 -22 -211 -103 -251 -208 -20 -52 -22 -75 -23 -319
-2 -285 2 -310 52 -347 24 -18 44 -19 271 -20 361 -1 344 -20 338 370 -4 323
-8 337 -101 431 -48 47 -73 64 -116 77 -74 22 -117 26 -170 16z m93 -240 c53
-27 57 -41 57 -236 l0 -182 -95 0 -95 0 0 168 c0 93 5 182 11 199 6 18 23 36
42 46 38 19 51 20 80 5z"/>
<path d="M4808 4689 c-94 -28 -158 -81 -207 -174 l-26 -50 -3 -292 -3 -291 28
-32 c16 -17 43 -34 63 -39 19 -4 137 -7 262 -6 213 1 229 2 255 21 52 39 53
47 51 349 -3 279 -3 280 -29 336 -71 151 -234 225 -391 178z m160 -255 c12
-14 22 -30 23 -37 4 -52 3 -341 -2 -348 -3 -5 -45 -8 -94 -7 l-89 3 -1 173
c-1 150 2 178 17 203 33 54 103 60 146 13z"/>
<path d="M5780 4700 c-106 -20 -208 -100 -253 -198 -21 -44 -22 -64 -25 -327
-3 -280 -3 -280 20 -315 13 -19 38 -40 55 -45 19 -6 130 -10 265 -10 210 1
236 3 265 20 54 32 58 53 57 345 -1 251 -2 268 -24 325 -53 138 -219 232 -360
205z m121 -268 c25 -28 25 -30 27 -209 l2 -181 -95 -1 c-91 0 -95 1 -96 22 -3
88 1 331 6 348 4 11 21 29 38 40 41 25 83 18 118 -19z"/>
<path d="M6563 3781 c-18 -12 -38 -34 -45 -52 -10 -24 -13 -389 -13 -1760 0
-1147 -3 -1729 -10 -1730 -40 -4 -1085 -3 -1086 1 -1 3 -3 174 -4 380 -1 352
-3 379 -23 445 -41 135 -135 247 -256 305 -78 37 -103 42 -206 46 -70 2 -99
-2 -160 -22 -141 -48 -254 -156 -310 -297 -24 -62 -25 -64 -28 -457 -2 -217
-5 -397 -8 -399 -3 -4 -347 -5 -406 -2 -17 1 -18 26 -18 379 0 222 -5 395 -11
422 -41 178 -204 337 -379 370 -261 49 -507 -105 -575 -361 -12 -42 -15 -136
-15 -431 0 -208 -3 -378 -7 -379 -45 -4 -416 -2 -419 2 -2 4 -4 175 -5 380 -1
284 -4 387 -15 426 -45 173 -175 305 -350 358 -67 20 -216 13 -289 -13 -113
-41 -220 -133 -270 -232 -55 -109 -58 -135 -59 -542 0 -332 -2 -378 -16 -379
-63 -4 -1080 -3 -1081 1 -1 3 -2 156 -4 340 -1 184 -3 343 -4 352 -2 30 -51
77 -86 84 -49 9 -101 -12 -124 -50 -20 -32 -21 -49 -21 -455 -1 -384 1 -424
17 -451 38 -65 -233 -60 3228 -60 2364 0 3152 3 3168 12 27 14 41 28 55 55 9
16 12 480 12 1833 0 1651 -1 1814 -16 1839 -34 57 -106 76 -161 42z m-4395
-2613 c58 -15 124 -76 152 -139 21 -51 22 -62 23 -416 0 -200 -3 -366 -6 -370
-5 -4 -415 -8 -488 -4 -15 1 -16 38 -15 379 2 364 2 378 23 417 39 75 81 111
156 135 54 18 82 18 155 -2z m1412 2 c50 -14 123 -80 151 -138 23 -46 23 -52
24 -419 0 -246 -3 -374 -10 -376 -9 -2 -481 -1 -495 2 -3 1 -5 169 -5 374 1
366 1 373 23 419 60 123 176 175 312 138z m1449 -15 c41 -21 88 -70 114 -120
21 -38 22 -55 24 -400 1 -198 0 -369 -2 -380 -4 -19 -12 -20 -247 -19 -134 0
-248 3 -253 6 -16 10 -11 707 5 763 23 83 110 159 200 175 45 7 119 -4 159
-25z"/>
<path d="M1094 3546 c-109 -26 -195 -102 -235 -205 -21 -52 -22 -74 -23 -327
-1 -379 -19 -360 330 -358 355 1 337 -20 332 378 -3 256 -4 274 -25 319 -70
150 -226 230 -379 193z m110 -236 c57 -21 62 -61 57 -381 l-1 -36 -92 1 -93 1
-2 170 c-1 131 2 177 13 201 22 47 67 64 118 44z"/>
<path d="M2006 3540 c-94 -29 -163 -89 -207 -176 -23 -48 -24 -55 -27 -334 -3
-285 -3 -286 20 -320 15 -23 36 -38 60 -45 22 -6 135 -10 266 -9 222 1 231 2
261 24 18 12 37 34 42 48 5 14 10 142 10 285 0 292 -6 326 -67 410 -79 109
-226 157 -358 117z m155 -248 l33 -29 1 -182 c1 -99 -2 -182 -7 -183 -29 -6
-174 -3 -178 3 -3 4 -5 87 -4 185 l1 177 29 26 c42 37 86 38 125 3z"/>
<path d="M2971 3549 c-100 -19 -190 -89 -238 -188 l-27 -56 -3 -273 c-5 -395
-22 -375 326 -377 209 0 239 1 272 18 61 30 65 50 63 344 -1 282 -5 313 -57
389 -76 113 -202 167 -336 143z m131 -262 c27 -31 29 -46 26 -227 l-3 -165
-92 -1 -93 -1 0 176 c0 189 6 215 50 239 33 16 89 6 112 -21z"/>
<path d="M3897 3549 c-98 -22 -190 -97 -233 -192 l-28 -62 0 -275 c-1 -386
-20 -365 328 -364 354 1 338 -16 335 355 -2 316 -11 359 -101 447 -45 45 -74
63 -130 81 -46 15 -126 19 -171 10z m141 -264 c21 -25 22 -34 22 -209 l0 -183
-95 0 -95 0 0 176 c1 188 6 211 51 238 34 19 89 9 117 -22z"/>
<path d="M4809 3540 c-30 -9 -65 -22 -79 -29 -40 -21 -107 -97 -132 -149 -22
-45 -23 -59 -25 -332 -4 -308 -3 -315 50 -354 26 -19 41 -20 275 -20 239 0
249 0 279 22 52 37 54 53 51 358 l-3 279 -29 55 c-75 145 -238 217 -387 170z
m152 -248 l32 -29 1 -177 c1 -98 -1 -181 -4 -184 -9 -14 -178 -12 -182 1 -2 7
-4 90 -3 186 l1 173 29 27 c42 37 86 38 126 3z"/>
<path d="M5771 3549 c-102 -19 -194 -91 -240 -189 -26 -54 -26 -58 -29 -327
-5 -398 -23 -377 329 -377 354 0 334 -22 332 358 0 253 -2 275 -22 327 -57
149 -213 236 -370 208z m108 -244 c43 -22 50 -54 48 -240 l-2 -170 -87 -2
c-54 -1 -90 3 -95 10 -3 5 -6 87 -5 180 1 137 4 174 17 193 28 43 77 54 124
29z"/>
<path d="M1128 2405 c-2 -2 -18 -5 -36 -8 -77 -12 -175 -86 -215 -162 -37 -71
-43 -129 -41 -380 1 -132 2 -248 3 -259 0 -10 17 -34 37 -52 l35 -34 250 0
c258 0 276 2 311 43 27 31 30 65 26 343 -3 257 -3 259 -30 316 -40 87 -133
167 -212 184 -28 7 -124 13 -128 9z m103 -264 c20 -20 29 -40 30 -63 1 -42 1
-287 0 -313 -1 -19 -7 -21 -93 -20 l-93 1 -1 174 c-2 186 3 212 45 235 42 23
79 18 112 -14z"/>
<path d="M2003 2391 c-68 -23 -129 -66 -166 -116 -61 -84 -61 -86 -65 -392 -5
-398 -27 -373 330 -373 225 0 245 2 276 20 18 11 37 32 43 47 6 16 9 134 7
307 -3 267 -4 283 -25 327 -74 154 -247 232 -400 180z m160 -246 c15 -14 28
-36 28 -48 7 -120 3 -347 -6 -348 -5 -1 -47 -2 -92 -3 -66 -1 -82 1 -85 14 -2
8 -3 91 -2 183 l1 168 29 30 c37 38 88 40 127 4z"/>
<path d="M2965 2401 c-101 -25 -190 -97 -234 -191 -26 -55 -26 -57 -28 -330
-3 -394 -25 -370 336 -370 l251 0 30 28 c17 15 34 41 38 57 5 17 8 143 7 280
-1 215 -4 258 -20 309 -47 149 -229 253 -380 217z m128 -255 c14 -13 29 -35
32 -48 3 -12 4 -97 3 -188 l-3 -165 -92 0 -93 0 0 183 0 184 29 29 c38 37 87
39 124 5z"/>
<path d="M3862 2388 c-106 -35 -193 -131 -218 -238 -11 -50 -12 -529 -1 -563
5 -15 24 -39 42 -52 l32 -25 246 0 c154 0 255 4 269 11 13 6 32 22 43 37 19
26 20 43 20 312 l0 285 -26 55 c-75 159 -242 232 -407 178z m165 -242 c28 -24
28 -25 33 -173 3 -81 3 -166 0 -188 l-5 -40 -80 1 c-44 1 -86 2 -92 3 -10 1
-13 43 -13 174 0 154 2 175 20 202 33 51 92 60 137 21z"/>
<path d="M4819 2396 c-98 -26 -174 -89 -220 -182 -23 -48 -24 -56 -27 -331 -5
-397 -26 -373 328 -373 354 0 333 -24 328 373 -3 277 -3 283 -28 330 -38 75
-85 123 -153 157 -73 36 -157 45 -228 26z m142 -254 l32 -28 2 -175 c1 -96 0
-179 -2 -185 -3 -8 -120 -12 -178 -5 -17 2 -13 342 4 374 28 53 95 61 142 19z"/>
<path d="M5745 2395 c-96 -28 -171 -92 -213 -182 l-27 -58 -3 -278 c-3 -391
-25 -367 330 -367 261 0 274 3 312 53 19 26 20 41 21 280 1 315 -8 363 -87
453 -80 90 -221 133 -333 99z m134 -240 c16 -8 33 -27 39 -42 12 -34 14 -344
1 -359 -9 -11 -163 -13 -174 -3 -5 5 -9 211 -6 327 1 23 10 43 30 63 33 32 67
37 110 14z"/>
</g>
</svg>